<svg width="159" height="37" viewBox="0 0 159 37" fill="none" xmlns="http://www.w3.org/2000/svg">
    <path d="M10.894 25.28C9.298 25.28 7.82867 24.9253 6.486 24.216C2.534 24.1907 0.558 22.4173 0.558 18.896C0.558 18.1613 0.672 17.3507 0.9 16.464C0.621333 15.2227 0.482 14.0067 0.482 12.816C0.482 10.688 1.57133 8.76267 3.75 7.04C3.62333 4.456 4.56067 2.68267 6.562 1.72C7.19533 1.39067 7.86667 1.226 8.576 1.226C10.5773 1.226 12.49 2.31533 14.314 4.494C16.0113 4.82333 17.4047 5.596 18.494 6.812C19.634 8.07867 20.204 9.59867 20.204 11.372C20.204 13.5253 19.558 15.6027 18.266 17.604C17.9367 19.884 17.0753 21.7333 15.682 23.152C14.314 24.5707 12.718 25.28 10.894 25.28ZM4.168 6.774C6.47333 5.102 9.222 4.266 12.414 4.266C12.7433 4.266 13.0853 4.29133 13.44 4.342C11.7173 2.518 10.02 1.606 8.348 1.606C7.74 1.606 7.19533 1.73267 6.714 1.986C4.94067 2.84733 4.092 4.44333 4.168 6.774ZM6.068 22.962C7.18267 22.962 8.31 22.772 9.45 22.392C10.59 21.9867 11.7173 21.4293 12.832 20.72C15.0613 19.276 16.7333 17.5027 17.848 15.4C17.8227 14.9187 17.7847 14.4373 17.734 13.956C17.6833 13.4747 17.5947 12.9807 17.468 12.474C16.9107 9.56067 15.7327 7.04 13.934 4.912C13.5033 4.81067 12.9967 4.76 12.414 4.76C9.07 4.76 6.34667 5.79867 4.244 7.876C4.29467 8.23067 4.37067 8.57267 4.472 8.902C4.59867 9.206 4.72533 9.49733 4.852 9.776C7.10667 7.59733 9.39933 6.508 11.73 6.508C12.034 6.508 12.186 6.59667 12.186 6.774C12.186 6.926 12.0213 7.002 11.692 7.002C9.69067 7.002 7.55 8.18 5.27 10.536C6.38467 12.1067 7.74 12.892 9.336 12.892C10.6533 12.892 11.6033 12.1827 12.186 10.764C12.186 10.688 12.224 10.65 12.3 10.65C12.4773 10.65 12.5407 10.726 12.49 10.878C11.8567 12.4233 10.818 13.196 9.374 13.196C7.67667 13.196 6.22 12.4107 5.004 10.84C3.408 12.588 2.306 14.412 1.698 16.312C2.20467 19.0987 3.38267 21.29 5.232 22.886C5.35867 22.9113 5.498 22.9367 5.65 22.962C5.802 22.962 5.94133 22.962 6.068 22.962ZM18.342 14.222C18.722 13.1327 18.912 12.018 18.912 10.878C18.912 7.99 17.5693 6.09 14.884 5.178C15.6693 6.19133 16.3407 7.306 16.898 8.522C17.4807 9.738 17.8733 11.0553 18.076 12.474L18.228 13.348C18.2533 13.5 18.266 13.652 18.266 13.804C18.2913 13.956 18.3167 14.0953 18.342 14.222ZM1.508 14.564C2.14133 12.9427 3.142 11.448 4.51 10.08C4.25667 9.59867 4.054 8.978 3.902 8.218C3.24333 8.92733 2.71133 9.71267 2.306 10.574C1.72333 11.7647 1.45733 13.0947 1.508 14.564ZM4.434 22.772C3.09133 21.5307 2.05267 19.9347 1.318 17.984C1.29267 18.0853 1.28 18.1993 1.28 18.326C1.28 18.4273 1.28 18.5413 1.28 18.668C1.28 20.8213 2.33133 22.1893 4.434 22.772ZM10.932 24.976C12.5787 24.976 13.9847 24.368 15.15 23.152C16.3153 21.9613 17.1133 20.4413 17.544 18.592C16.252 20.188 14.694 21.4927 12.87 22.506C11.046 23.5193 9.17133 24.0767 7.246 24.178C8.33533 24.71 9.564 24.976 10.932 24.976ZM19.9448 23.114C19.8688 23.114 19.8308 23.076 19.8308 23C19.7802 22.2907 19.9322 20.9227 20.2868 18.896C20.4642 17.8827 20.6288 17.034 20.7808 16.35C20.9582 15.6407 21.1102 15.1087 21.2368 14.754C20.4515 14.9313 20.0335 15.248 19.9828 15.704C19.9322 16.008 19.8435 16.16 19.7168 16.16C19.5648 16.16 19.5142 16.008 19.5648 15.704C19.5902 14.9947 20.2362 14.45 21.5028 14.07C21.8322 12.9807 22.2248 11.9167 22.6808 10.878C23.1622 9.83933 23.6942 8.826 24.2768 7.838C25.6448 5.60867 27.0888 3.91133 28.6088 2.746C30.1542 1.55533 31.7248 0.959998 33.3208 0.959998C35.3728 0.959998 36.7408 1.82133 37.4248 3.544C37.6022 3.97467 37.6908 4.44333 37.6908 4.95C37.6908 6.41933 36.9688 7.69867 35.5248 8.788C33.3715 10.46 29.0522 12.322 22.5668 14.374C22.2122 15.3367 21.7815 17.3633 21.2748 20.454L24.4288 16.274C24.4795 15.97 24.6568 15.6407 24.9608 15.286C25.2902 14.906 25.5562 14.716 25.7588 14.716C25.9362 14.716 26.0248 14.8553 26.0248 15.134C26.0248 15.1847 26.0248 15.248 26.0248 15.324C26.0248 15.4 26.0122 15.476 25.9868 15.552C25.6828 17.604 25.5308 18.972 25.5308 19.656C25.5308 21.2773 25.8222 22.088 26.4048 22.088C27.0635 22.088 27.9628 21.4167 29.1028 20.074L29.9008 19.086C29.9768 19.01 30.0402 19.086 30.0908 19.314C29.8882 19.77 29.3688 20.4287 28.5328 21.29C27.3928 22.4807 26.4175 23.076 25.6068 23.076C25.3282 23.076 25.1002 23.0253 24.9228 22.924C24.3148 22.62 24.0108 21.594 24.0108 19.846C24.0108 19.39 24.0235 18.9593 24.0488 18.554C24.0995 18.1487 24.1502 17.7687 24.2008 17.414C23.5928 18.1233 22.5922 19.352 21.1988 21.1C21.1482 21.6827 20.9708 22.164 20.6668 22.544C20.3882 22.924 20.1475 23.114 19.9448 23.114ZM22.7188 13.728C24.4922 13.2213 26.6582 12.3727 29.2168 11.182C32.0035 9.89 34.0428 8.75 35.3348 7.762C36.6015 6.774 37.2348 5.76067 37.2348 4.722C37.2348 4.44333 37.1842 4.19 37.0828 3.962C36.5762 2.69533 35.3602 2.062 33.4348 2.062C32.9028 2.062 32.4342 2.11267 32.0288 2.214C29.3435 2.69533 27.2155 4.24067 25.6448 6.85C25.3662 7.28067 24.9862 8.066 24.5048 9.206C24.0235 10.3713 23.4282 11.8787 22.7188 13.728ZM29.186 26.914C29.11 26.914 29.072 26.8887 29.072 26.838C29.072 26.7367 29.452 26.1667 30.212 25.128L31.504 23.342C31.048 23.266 30.82 22.9113 30.82 22.278C30.82 21.9233 30.972 21.632 31.276 21.404C31.58 21.1507 31.922 21.024 32.302 21.024C33.0113 21.024 33.366 21.4293 33.366 22.24C33.366 22.772 32.9606 23.5447 32.15 24.558C31.3393 25.5207 30.63 26.1793 30.022 26.534C29.6166 26.7873 29.338 26.914 29.186 26.914ZM42.0629 23.608C41.8602 23.608 41.7842 23.494 41.8349 23.266C42.6202 20.0487 43.0129 17.7307 43.0129 16.312V15.78C43.0129 15.628 43.0002 15.4887 42.9749 15.362C42.9749 15.0327 43.1522 14.7287 43.5069 14.45C43.8616 14.1713 44.2036 14.032 44.5329 14.032C44.8116 14.032 44.9509 14.1333 44.9509 14.336C44.9509 14.4373 44.9382 14.526 44.9129 14.602C44.7102 15.058 44.4822 16.236 44.2289 18.136C44.1022 19.0227 44.0009 19.694 43.9249 20.15C43.8236 20.6313 43.7602 20.8973 43.7349 20.948C44.6469 20.112 45.8882 18.4147 47.4589 15.856C47.9909 14.9947 48.4469 14.564 48.8269 14.564C49.2576 14.564 49.4729 15.1467 49.4729 16.312C49.4729 17.756 49.3716 19.0607 49.1689 20.226C49.9289 19.39 51.1196 17.9333 52.7409 15.856C52.8422 15.5013 53.0449 15.1467 53.3489 14.792C53.6782 14.412 53.9442 14.222 54.1469 14.222C54.3242 14.222 54.4129 14.374 54.4129 14.678C54.4129 14.8553 54.4002 15.0073 54.3749 15.134C54.1216 16.578 53.9316 17.718 53.8049 18.554C53.6782 19.39 53.6149 19.9347 53.6149 20.188C53.6149 21.4547 54.0582 22.088 54.9449 22.088C55.4262 22.088 55.9582 21.8853 56.5409 21.48C57.0729 21.1253 57.6682 20.606 58.3269 19.922C58.5042 19.7447 58.6689 19.5673 58.8209 19.39C58.9729 19.2127 59.1249 19.0353 59.2769 18.858C59.3022 18.8327 59.3276 18.82 59.3529 18.82C59.4542 18.82 59.5176 18.9087 59.5429 19.086C59.3656 19.5167 58.7449 20.226 57.6809 21.214C56.2876 22.4807 55.1096 23.114 54.1469 23.114C53.8429 23.114 53.5896 23.0633 53.3869 22.962C52.5256 22.582 52.0949 21.67 52.0949 20.226C52.0949 19.4407 52.2216 18.3767 52.4749 17.034C51.1069 18.402 49.9922 19.694 49.1309 20.91C49.1056 21.518 48.8269 22.0627 48.2949 22.544C47.7882 23 47.3956 23.228 47.1169 23.228C47.0156 23.228 46.9902 23.2027 47.0409 23.152C47.1676 22.8227 47.2816 22.3667 47.3829 21.784C47.5096 21.176 47.6362 20.4413 47.7629 19.58C48.0162 17.8573 48.1429 16.6287 48.1429 15.894L45.5589 19.238C44.3176 20.8847 43.6209 21.9487 43.4689 22.43C43.2156 23.2153 42.7469 23.608 42.0629 23.608ZM50.854 36.414C48.65 36.414 47.244 35.4767 46.636 33.602C46.484 33.1967 46.408 32.7913 46.408 32.386C46.408 30.866 47.1933 29.5487 48.764 28.434C50.9933 26.914 55.414 25.2927 62.026 23.57C62.2793 23.038 62.558 21.9233 62.862 20.226L63.546 16.692C62.5073 18.592 61.4053 20.2133 60.24 21.556C60.1386 21.8347 59.936 22.164 59.632 22.544C59.3533 22.8987 59.1 23.076 58.872 23.076C58.6946 23.076 58.606 22.9367 58.606 22.658C58.606 22.4807 58.6186 22.3287 58.644 22.202C58.9986 20.4287 59.176 19.1493 59.176 18.364C59.176 17.224 58.91 16.654 58.378 16.654C58.1753 16.654 57.8966 16.7553 57.542 16.958C57.4153 17.034 57.3266 17.072 57.276 17.072C57.1746 17.072 57.124 17.034 57.124 16.958C57.124 16.7807 57.238 16.6287 57.466 16.502C58.0993 16.0207 58.682 15.78 59.214 15.78C59.442 15.78 59.6446 15.8307 59.822 15.932C60.3033 16.1853 60.544 16.9327 60.544 18.174C60.544 19.0607 60.4553 19.846 60.278 20.53C60.6833 20.0233 61.1646 19.4027 61.722 18.668C62.2793 17.908 62.9253 17.034 63.66 16.046C63.7613 15.21 64.1033 14.792 64.686 14.792C65.0406 14.792 65.218 14.8933 65.218 15.096C65.218 15.8053 64.99 17.1607 64.534 19.162C64.078 21.2393 63.6853 22.6073 63.356 23.266C64.1413 23.0887 64.572 22.7847 64.648 22.354C64.6986 22.0753 64.8 21.936 64.952 21.936C65.0533 21.936 65.104 22.0373 65.104 22.24C65.104 23 64.42 23.57 63.052 23.95C62.292 26.078 61.266 28.092 59.974 29.992C58.5046 32.1453 56.9973 33.754 55.452 34.818C53.9066 35.882 52.374 36.414 50.854 36.414ZM50.93 35.312C53.7926 35.312 56.1613 34.0707 58.036 31.588C58.872 30.4987 60.1386 28.0287 61.836 24.178C60.088 24.5833 57.8713 25.3307 55.186 26.42C52.374 27.56 50.3093 28.586 48.992 29.498C47.5733 30.4607 46.864 31.474 46.864 32.538C46.864 32.766 46.902 32.994 46.978 33.222C47.434 34.6153 48.7513 35.312 50.93 35.312ZM73.4937 24.026C72.531 24.026 72.0497 23.8233 72.0497 23.418C72.0497 22.9367 72.455 22.6707 73.2657 22.62C74.3297 22.5693 75.647 22.4427 77.2177 22.24C77.4203 21.9107 77.5217 21.6193 77.5217 21.366C77.5217 20.9607 77.2303 20.5047 76.6477 19.998C75.2543 18.782 74.5577 17.6167 74.5577 16.502C74.5577 16.122 74.6463 15.7673 74.8237 15.438C75.685 13.9687 76.749 13.234 78.0157 13.234C78.5477 13.234 79.0037 13.3733 79.3837 13.652C79.7637 13.9307 79.9537 14.2347 79.9537 14.564C79.9537 14.6653 79.9283 14.7667 79.8777 14.868C79.8523 14.944 79.8143 14.982 79.7637 14.982C79.713 14.982 79.6497 14.906 79.5737 14.754C79.523 14.3233 79.2823 14.108 78.8517 14.108C78.2183 14.108 77.5597 14.45 76.8757 15.134C76.217 15.8433 75.8877 16.5147 75.8877 17.148C75.8877 17.7053 76.255 18.4273 76.9897 19.314C77.7243 20.1753 78.0917 20.8213 78.0917 21.252C78.0917 21.4547 78.0283 21.708 77.9017 22.012C78.231 21.86 78.6363 21.6447 79.1177 21.366C79.6243 21.0873 80.2197 20.7453 80.9037 20.34C80.9797 20.3907 80.6883 20.7073 80.0297 21.29L77.5977 22.734C77.395 23.0887 76.863 23.3927 76.0017 23.646C75.2163 23.8993 74.3803 24.026 73.4937 24.026ZM81.0649 23.608C80.8622 23.608 80.7862 23.494 80.8369 23.266C81.6222 20.0487 82.0149 17.7307 82.0149 16.312V15.78C82.0149 15.628 82.0022 15.4887 81.9769 15.362C81.9769 15.0327 82.1542 14.7287 82.5089 14.45C82.8635 14.1713 83.2055 14.032 83.5349 14.032C83.8135 14.032 83.9529 14.1333 83.9529 14.336C83.9529 14.4373 83.9402 14.526 83.9149 14.602C83.7122 15.058 83.4842 16.236 83.2309 18.136C83.1042 19.0227 83.0029 19.694 82.9269 20.15C82.8255 20.6313 82.7622 20.8973 82.7369 20.948C83.6489 20.112 84.8902 18.4147 86.4609 15.856C86.9929 14.9947 87.4489 14.564 87.8289 14.564C88.2595 14.564 88.4749 15.1467 88.4749 16.312C88.4749 17.756 88.3735 19.0607 88.1709 20.226C88.9309 19.39 90.1215 17.9333 91.7429 15.856C91.8442 15.5013 92.0469 15.1467 92.3509 14.792C92.6802 14.412 92.9462 14.222 93.1489 14.222C93.3262 14.222 93.4149 14.374 93.4149 14.678C93.4149 14.8553 93.4022 15.0073 93.3769 15.134C93.1235 16.578 92.9335 17.718 92.8069 18.554C92.6802 19.39 92.6169 19.9347 92.6169 20.188C92.6169 21.4547 93.0602 22.088 93.9469 22.088C94.4282 22.088 94.9602 21.8853 95.5429 21.48C96.0749 21.1253 96.6702 20.606 97.3289 19.922C97.5062 19.7447 97.6709 19.5673 97.8229 19.39C97.9749 19.2127 98.1269 19.0353 98.2789 18.858C98.3042 18.8327 98.3295 18.82 98.3549 18.82C98.4562 18.82 98.5195 18.9087 98.5449 19.086C98.3675 19.5167 97.7469 20.226 96.6829 21.214C95.2895 22.4807 94.1115 23.114 93.1489 23.114C92.8449 23.114 92.5915 23.0633 92.3889 22.962C91.5275 22.582 91.0969 21.67 91.0969 20.226C91.0969 19.4407 91.2235 18.3767 91.4769 17.034C90.1089 18.402 88.9942 19.694 88.1329 20.91C88.1075 21.518 87.8289 22.0627 87.2969 22.544C86.7902 23 86.3975 23.228 86.1189 23.228C86.0175 23.228 85.9922 23.2027 86.0429 23.152C86.1695 22.8227 86.2835 22.3667 86.3849 21.784C86.5115 21.176 86.6382 20.4413 86.7649 19.58C87.0182 17.8573 87.1449 16.6287 87.1449 15.894L84.5609 19.238C83.3195 20.8847 82.6229 21.9487 82.4709 22.43C82.2175 23.2153 81.7489 23.608 81.0649 23.608ZM98.8999 23.456C98.2666 23.456 97.7473 23.1647 97.3419 22.582C96.9366 21.9993 96.7339 21.252 96.7339 20.34C96.7339 19.6053 96.8606 18.858 97.1139 18.098C98.0513 15.2607 99.2039 13.7787 100.572 13.652C100.724 13.4747 100.939 13.386 101.218 13.386C101.725 13.386 102.219 13.614 102.7 14.07C103.207 14.526 103.485 15.0073 103.536 15.514C103.865 15.9193 104.347 16.122 104.98 16.122C105.183 16.122 105.487 16.0967 105.892 16.046C106.297 15.9953 106.601 15.97 106.804 15.97C106.905 15.97 106.931 16.0333 106.88 16.16C106.855 16.2613 106.728 16.3753 106.5 16.502C106.044 16.73 105.474 16.8693 104.79 16.92H104.334C103.903 16.92 103.587 16.8693 103.384 16.768C103.511 17.7307 103.055 19.1113 102.016 20.91C101.079 22.6073 100.04 23.456 98.8999 23.456ZM99.1279 22.696C99.7866 22.696 100.496 22.1007 101.256 20.91C101.459 20.5807 101.649 20.2133 101.826 19.808C102.029 19.4027 102.193 18.9467 102.32 18.44C102.573 17.5787 102.675 16.958 102.624 16.578C101.687 16.426 101.142 15.8813 100.99 14.944C100.306 15.1467 99.6473 16.0207 99.0139 17.566C98.4313 19.01 98.1399 20.1753 98.1399 21.062C98.1399 22.1513 98.4693 22.696 99.1279 22.696ZM107.843 23.456C107.21 23.456 106.691 23.1647 106.285 22.582C105.88 21.9993 105.677 21.252 105.677 20.34C105.677 19.6053 105.804 18.858 106.057 18.098C106.995 15.2607 108.147 13.7787 109.515 13.652C109.667 13.4747 109.883 13.386 110.161 13.386C110.668 13.386 111.162 13.614 111.643 14.07C112.15 14.526 112.429 15.0073 112.479 15.514C112.809 15.9193 113.29 16.122 113.923 16.122C114.126 16.122 114.43 16.0967 114.835 16.046C115.241 15.9953 115.545 15.97 115.747 15.97C115.849 15.97 115.874 16.0333 115.823 16.16C115.798 16.2613 115.671 16.3753 115.443 16.502C114.987 16.73 114.417 16.8693 113.733 16.92H113.277C112.847 16.92 112.53 16.8693 112.327 16.768C112.454 17.7307 111.998 19.1113 110.959 20.91C110.022 22.6073 108.983 23.456 107.843 23.456ZM108.071 22.696C108.73 22.696 109.439 22.1007 110.199 20.91C110.402 20.5807 110.592 20.2133 110.769 19.808C110.972 19.4027 111.137 18.9467 111.263 18.44C111.517 17.5787 111.618 16.958 111.567 16.578C110.63 16.426 110.085 15.8813 109.933 14.944C109.249 15.1467 108.591 16.0207 107.957 17.566C107.375 19.01 107.083 20.1753 107.083 21.062C107.083 22.1513 107.413 22.696 108.071 22.696ZM116.407 23.19C116.077 23.19 115.799 23.152 115.571 23.076C115.343 23.0253 115.165 22.962 115.039 22.886C114.735 22.658 114.583 22.2273 114.583 21.594C114.583 21.3913 114.595 21.1633 114.621 20.91C114.671 20.6567 114.722 20.3653 114.773 20.036C114.874 19.428 115.203 18.3387 115.761 16.768C115.887 16.4387 115.989 16.1473 116.065 15.894C116.166 15.6407 116.242 15.4253 116.293 15.248L116.483 14.754C115.925 14.754 114.988 14.868 113.671 15.096H113.633C113.531 15.096 113.481 14.9693 113.481 14.716C113.481 14.412 113.595 14.222 113.823 14.146C114 14.07 114.975 13.9687 116.749 13.842C116.951 13.1833 117.192 12.4233 117.471 11.562C117.775 10.6753 118.117 9.7 118.497 8.636C118.522 8.484 118.623 8.408 118.801 8.408C119.003 8.408 119.231 8.58533 119.485 8.94C119.738 9.26933 119.865 9.586 119.865 9.89C119.865 9.99133 119.852 10.0673 119.827 10.118L117.965 13.842C118.294 13.8167 118.585 13.804 118.839 13.804C119.117 13.804 119.383 13.804 119.637 13.804C121.081 13.804 121.815 13.918 121.841 14.146C121.841 14.2473 121.233 14.3487 120.017 14.45C119.687 14.4753 119.396 14.5007 119.143 14.526C118.889 14.526 118.661 14.5513 118.459 14.602L117.737 14.716C117.458 14.716 117.065 15.7673 116.559 17.87C116.103 19.7447 115.875 20.8593 115.875 21.214C115.875 21.974 116.153 22.354 116.711 22.354C117.141 22.354 117.99 22.012 119.257 21.328C119.409 21.2267 119.599 21.1 119.827 20.948C120.055 20.7707 120.333 20.5553 120.663 20.302C121.169 19.8713 121.486 19.656 121.613 19.656C121.663 19.656 121.701 19.7067 121.727 19.808C121.727 20.1627 121.068 20.796 119.751 21.708C118.383 22.696 117.268 23.19 116.407 23.19ZM120.548 23.114C120.472 23.114 120.434 23.076 120.434 23C120.384 22.2907 120.536 20.9227 120.89 18.896C121.068 17.8827 121.232 17.034 121.384 16.35C121.562 15.6407 121.714 15.1087 121.84 14.754C121.055 14.9313 120.637 15.248 120.586 15.704C120.536 16.008 120.447 16.16 120.32 16.16C120.168 16.16 120.118 16.008 120.168 15.704C120.194 14.9947 120.84 14.45 122.106 14.07C122.436 12.9807 122.828 11.9167 123.284 10.878C123.766 9.83933 124.298 8.826 124.88 7.838C126.248 5.60867 127.692 3.91133 129.212 2.746C130.758 1.55533 132.328 0.959998 133.924 0.959998C135.976 0.959998 137.344 1.82133 138.028 3.544C138.206 3.97467 138.294 4.44333 138.294 4.95C138.294 6.41933 137.572 7.69867 136.128 8.788C133.975 10.46 129.656 12.322 123.17 14.374C122.816 15.3367 122.385 17.3633 121.878 20.454L125.032 16.274C125.083 15.97 125.26 15.6407 125.564 15.286C125.894 14.906 126.16 14.716 126.362 14.716C126.54 14.716 126.628 14.8553 126.628 15.134C126.628 15.1847 126.628 15.248 126.628 15.324C126.628 15.4 126.616 15.476 126.59 15.552C126.286 17.604 126.134 18.972 126.134 19.656C126.134 21.2773 126.426 22.088 127.008 22.088C127.667 22.088 128.566 21.4167 129.706 20.074L130.504 19.086C130.58 19.01 130.644 19.086 130.694 19.314C130.492 19.77 129.972 20.4287 129.136 21.29C127.996 22.4807 127.021 23.076 126.21 23.076C125.932 23.076 125.704 23.0253 125.526 22.924C124.918 22.62 124.614 21.594 124.614 19.846C124.614 19.39 124.627 18.9593 124.652 18.554C124.703 18.1487 124.754 17.7687 124.804 17.414C124.196 18.1233 123.196 19.352 121.802 21.1C121.752 21.6827 121.574 22.164 121.27 22.544C120.992 22.924 120.751 23.114 120.548 23.114ZM123.322 13.728C125.096 13.2213 127.262 12.3727 129.82 11.182C132.607 9.89 134.646 8.75 135.938 7.762C137.205 6.774 137.838 5.76067 137.838 4.722C137.838 4.44333 137.788 4.19 137.686 3.962C137.18 2.69533 135.964 2.062 134.038 2.062C133.506 2.062 133.038 2.11267 132.632 2.214C129.947 2.69533 127.819 4.24067 126.248 6.85C125.97 7.28067 125.59 8.066 125.108 9.206C124.627 10.3713 124.032 11.8787 123.322 13.728ZM133.095 12.93C132.893 12.93 132.677 12.892 132.449 12.816C132.247 12.7147 132.145 12.626 132.145 12.55C132.145 12.4993 132.158 12.4613 132.183 12.436C133.07 11.7013 133.805 11.334 134.387 11.334C134.539 11.334 134.615 11.3847 134.615 11.486C134.615 11.638 134.451 11.8913 134.121 12.246C133.792 12.6007 133.526 12.816 133.323 12.892C133.298 12.892 133.26 12.9047 133.209 12.93C133.184 12.93 133.146 12.93 133.095 12.93ZM131.309 22.962C130.499 22.962 130.093 22.2527 130.093 20.834V20.378C130.093 20.226 130.106 20.0613 130.131 19.884C130.182 19.5547 130.258 19.1493 130.359 18.668C130.461 18.1867 130.6 17.6167 130.777 16.958L131.385 14.792C131.411 14.6147 131.664 14.526 132.145 14.526C132.728 14.526 133.019 14.6653 133.019 14.944C133.019 15.2733 132.931 15.628 132.753 16.008C132.551 16.54 132.323 16.8187 132.069 16.844C131.943 16.8947 131.753 17.984 131.499 20.112C131.449 20.4667 131.423 20.7453 131.423 20.948C131.423 21.7333 131.626 22.126 132.031 22.126C132.335 22.126 132.741 21.9107 133.247 21.48L135.565 19.542C135.667 19.466 135.743 19.4533 135.793 19.504C135.869 19.5293 135.882 19.6053 135.831 19.732C135.401 20.3907 134.603 21.1507 133.437 22.012C132.576 22.6453 131.867 22.962 131.309 22.962ZM137.792 23.456C137.032 23.456 136.399 23.228 135.892 22.772C135.386 22.2907 135.132 21.48 135.132 20.34C135.132 20.036 135.158 19.7067 135.208 19.352C135.436 18.06 135.968 16.8313 136.804 15.666C137.843 14.2473 138.92 13.538 140.034 13.538C140.617 13.538 141.162 13.7027 141.668 14.032C142.175 14.336 142.428 14.792 142.428 15.4C142.428 16.084 142.15 16.7933 141.592 17.528H142.352C142.479 17.528 142.555 17.5407 142.58 17.566C142.58 17.718 142.112 17.8827 141.174 18.06C140.617 18.6933 140.199 19.01 139.92 19.01C139.87 19.01 139.844 18.9847 139.844 18.934C139.844 18.9593 140.034 18.706 140.414 18.174C140.085 18.174 139.642 18.1993 139.084 18.25C138.552 18.2753 137.906 18.3387 137.146 18.44C136.868 19.2 136.728 19.9093 136.728 20.568C136.728 21.404 136.956 22.012 137.412 22.392C137.691 22.6453 138.033 22.772 138.438 22.772C138.514 22.772 138.59 22.772 138.666 22.772C138.742 22.772 138.818 22.7593 138.894 22.734C140.516 22.4553 142.086 21.518 143.606 19.922C143.733 19.7447 143.834 19.7193 143.91 19.846C143.936 19.8713 143.948 19.9093 143.948 19.96C143.948 20.0613 143.872 20.188 143.72 20.34C143.188 21.024 142.352 21.6953 141.212 22.354C139.946 23.0887 138.806 23.456 137.792 23.456ZM137.526 17.642C137.881 17.6167 138.337 17.604 138.894 17.604L140.794 17.566C141.073 17.0087 141.25 16.5653 141.326 16.236C141.402 15.9067 141.44 15.6407 141.44 15.438C141.44 14.906 141.238 14.64 140.832 14.64C140.326 14.64 139.768 14.944 139.16 15.552C138.806 15.9067 138.489 16.2613 138.21 16.616C137.932 16.9453 137.704 17.2873 137.526 17.642ZM148.303 19.086C147.999 19.086 147.847 18.9213 147.847 18.592C147.847 18.516 147.873 18.402 147.923 18.25C148.81 15.9447 149.925 13.4747 151.267 10.84C152.635 8.20533 154.231 5.368 156.055 2.328C156.106 2.27733 156.169 2.252 156.245 2.252C156.549 2.252 156.841 2.37867 157.119 2.632C157.727 3.012 157.955 3.30333 157.803 3.506C152.863 11.1313 149.963 16.0967 149.101 18.402C148.899 18.858 148.633 19.086 148.303 19.086ZM146.555 23.76C145.745 23.76 145.339 23.3927 145.339 22.658C145.339 21.8727 145.745 21.48 146.555 21.48C147.366 21.48 147.771 21.8727 147.771 22.658C147.771 23.3927 147.366 23.76 146.555 23.76Z"
          fill="#F4F1E0"/>
</svg>
